<svg xmlns="http://www.w3.org/2000/svg" viewBox="0 0 360 290" role="img" aria-labelledby="arc-agi-t">
<title id="arc-agi-t">Une tâche ARC-AGI : deux exemples d'une transformation de grille, puis une grille à compléter sans consigne écrite.</title>
<text class="m d" x="150" y="16">entrée</text>
<text class="m d" x="262" y="16">sortie</text>
<text class="m mu" x="0" y="67.0">Exemple 1</text>
<rect class="bx" x="147" y="31" width="62" height="62" rx="4"/>
<rect class="fa" x="151" y="35" width="12" height="12" rx="2"/>
<rect class="fd" x="165" y="35" width="12" height="12" rx="2"/>
<rect class="fd" x="179" y="35" width="12" height="12" rx="2"/>
<rect class="fd" x="193" y="35" width="12" height="12" rx="2"/>
<rect class="fa" x="151" y="49" width="12" height="12" rx="2"/>
<rect class="fa" x="165" y="49" width="12" height="12" rx="2"/>
<rect class="fd" x="179" y="49" width="12" height="12" rx="2"/>
<rect class="fd" x="193" y="49" width="12" height="12" rx="2"/>
<rect class="fd" x="151" y="63" width="12" height="12" rx="2"/>
<rect class="fd" x="165" y="63" width="12" height="12" rx="2"/>
<rect class="fd" x="179" y="63" width="12" height="12" rx="2"/>
<rect class="fd" x="193" y="63" width="12" height="12" rx="2"/>
<rect class="fd" x="151" y="77" width="12" height="12" rx="2"/>
<rect class="fd" x="165" y="77" width="12" height="12" rx="2"/>
<rect class="fd" x="179" y="77" width="12" height="12" rx="2"/>
<rect class="fd" x="193" y="77" width="12" height="12" rx="2"/>
<path class="lm" d="M218 62.0 h28"/><path class="lm" d="M240 57.0 l6 5 l-6 5"/>
<rect class="bx" x="259" y="31" width="62" height="62" rx="4"/>
<rect class="fd" x="263" y="35" width="12" height="12" rx="2"/>
<rect class="fd" x="277" y="35" width="12" height="12" rx="2"/>
<rect class="fd" x="291" y="35" width="12" height="12" rx="2"/>
<rect class="fa" x="305" y="35" width="12" height="12" rx="2"/>
<rect class="fd" x="263" y="49" width="12" height="12" rx="2"/>
<rect class="fd" x="277" y="49" width="12" height="12" rx="2"/>
<rect class="fa" x="291" y="49" width="12" height="12" rx="2"/>
<rect class="fa" x="305" y="49" width="12" height="12" rx="2"/>
<rect class="fd" x="263" y="63" width="12" height="12" rx="2"/>
<rect class="fd" x="277" y="63" width="12" height="12" rx="2"/>
<rect class="fd" x="291" y="63" width="12" height="12" rx="2"/>
<rect class="fd" x="305" y="63" width="12" height="12" rx="2"/>
<rect class="fd" x="263" y="77" width="12" height="12" rx="2"/>
<rect class="fd" x="277" y="77" width="12" height="12" rx="2"/>
<rect class="fd" x="291" y="77" width="12" height="12" rx="2"/>
<rect class="fd" x="305" y="77" width="12" height="12" rx="2"/>
<text class="m mu" x="0" y="145.0">Exemple 2</text>
<rect class="bx" x="147" y="109" width="62" height="62" rx="4"/>
<rect class="fd" x="151" y="113" width="12" height="12" rx="2"/>
<rect class="fd" x="165" y="113" width="12" height="12" rx="2"/>
<rect class="fa" x="179" y="113" width="12" height="12" rx="2"/>
<rect class="fd" x="193" y="113" width="12" height="12" rx="2"/>
<rect class="fd" x="151" y="127" width="12" height="12" rx="2"/>
<rect class="fa" x="165" y="127" width="12" height="12" rx="2"/>
<rect class="fa" x="179" y="127" width="12" height="12" rx="2"/>
<rect class="fd" x="193" y="127" width="12" height="12" rx="2"/>
<rect class="fd" x="151" y="141" width="12" height="12" rx="2"/>
<rect class="fd" x="165" y="141" width="12" height="12" rx="2"/>
<rect class="fd" x="179" y="141" width="12" height="12" rx="2"/>
<rect class="fa" x="193" y="141" width="12" height="12" rx="2"/>
<rect class="fd" x="151" y="155" width="12" height="12" rx="2"/>
<rect class="fd" x="165" y="155" width="12" height="12" rx="2"/>
<rect class="fd" x="179" y="155" width="12" height="12" rx="2"/>
<rect class="fd" x="193" y="155" width="12" height="12" rx="2"/>
<path class="lm" d="M218 140.0 h28"/><path class="lm" d="M240 135.0 l6 5 l-6 5"/>
<rect class="bx" x="259" y="109" width="62" height="62" rx="4"/>
<rect class="fd" x="263" y="113" width="12" height="12" rx="2"/>
<rect class="fa" x="277" y="113" width="12" height="12" rx="2"/>
<rect class="fd" x="291" y="113" width="12" height="12" rx="2"/>
<rect class="fd" x="305" y="113" width="12" height="12" rx="2"/>
<rect class="fd" x="263" y="127" width="12" height="12" rx="2"/>
<rect class="fa" x="277" y="127" width="12" height="12" rx="2"/>
<rect class="fa" x="291" y="127" width="12" height="12" rx="2"/>
<rect class="fd" x="305" y="127" width="12" height="12" rx="2"/>
<rect class="fa" x="263" y="141" width="12" height="12" rx="2"/>
<rect class="fd" x="277" y="141" width="12" height="12" rx="2"/>
<rect class="fd" x="291" y="141" width="12" height="12" rx="2"/>
<rect class="fd" x="305" y="141" width="12" height="12" rx="2"/>
<rect class="fd" x="263" y="155" width="12" height="12" rx="2"/>
<rect class="fd" x="277" y="155" width="12" height="12" rx="2"/>
<rect class="fd" x="291" y="155" width="12" height="12" rx="2"/>
<rect class="fd" x="305" y="155" width="12" height="12" rx="2"/>
<text class="m mu" x="0" y="223.0">À toi de jouer</text>
<rect class="bx" x="147" y="187" width="62" height="62" rx="4"/>
<rect class="fa" x="151" y="191" width="12" height="12" rx="2"/>
<rect class="fd" x="165" y="191" width="12" height="12" rx="2"/>
<rect class="fd" x="179" y="191" width="12" height="12" rx="2"/>
<rect class="fd" x="193" y="191" width="12" height="12" rx="2"/>
<rect class="fa" x="151" y="205" width="12" height="12" rx="2"/>
<rect class="fa" x="165" y="205" width="12" height="12" rx="2"/>
<rect class="fd" x="179" y="205" width="12" height="12" rx="2"/>
<rect class="fd" x="193" y="205" width="12" height="12" rx="2"/>
<rect class="fa" x="151" y="219" width="12" height="12" rx="2"/>
<rect class="fd" x="165" y="219" width="12" height="12" rx="2"/>
<rect class="fa" x="179" y="219" width="12" height="12" rx="2"/>
<rect class="fd" x="193" y="219" width="12" height="12" rx="2"/>
<rect class="fd" x="151" y="233" width="12" height="12" rx="2"/>
<rect class="fd" x="165" y="233" width="12" height="12" rx="2"/>
<rect class="fd" x="179" y="233" width="12" height="12" rx="2"/>
<rect class="fd" x="193" y="233" width="12" height="12" rx="2"/>
<path class="lm" d="M218 218.0 h28"/><path class="lm" d="M240 213.0 l6 5 l-6 5"/>
<rect class="bxa dash" x="259" y="187" width="62" height="62" rx="4"/>
<text class="big ac" x="290.0" y="225.0" text-anchor="middle">?</text>
<text class="i mu" x="0" y="282">La règle se devine sur les deux exemples.</text>
</svg>
