<svg xmlns="http://www.w3.org/2000/svg" viewBox="0 0 360 300" role="img" aria-labelledby="mythe-base-de-donnees-t">
<title id="mythe-base-de-donnees-t">La même demande posée dans deux conversations : à chaque token, le modèle tire un candidat parmi plusieurs, et les deux réponses prennent deux chemins différents sans relire aucun texte stocké.</title>
<rect class="bx" x="0" y="0" width="214" height="32" rx="4"/>
<text x="12" y="21">« Cite-moi la page 112. »</text>
<path class="lm" d="M18 36 V134"/><path class="lm" d="M13 128 l5 6 l5 -6"/>
<path class="la" d="M36 154 C52 154, 54 102, 70 102"/>
<path class="la dash" d="M36 154 H70"/>
<path class="ln" d="M36 154 C52 154, 54 206, 70 206"/>
<path class="la" d="M132 102 C152 102, 158 80, 178 80"/>
<path class="ln" d="M132 102 C152 102, 158 124, 178 124"/>
<path class="la dash" d="M154 154 C166 154, 166 176, 178 176"/>
<path class="ln" d="M154 154 C166 154, 166 220, 178 220"/>
<path class="la" d="M238 80 H272"/>
<path class="la dash" d="M248 176 H272"/>
<rect class="bxa" x="0" y="142" width="36" height="24" rx="4"/>
<text class="m" x="10" y="158">Le</text>
<rect class="bxa" x="70" y="90" width="62" height="24" rx="4"/>
<text class="m" x="78" y="106">navire</text>
<rect class="bxa" x="70" y="142" width="84" height="24" rx="4"/>
<text class="m" x="78" y="158">capitaine</text>
<rect class="bx" x="70" y="194" width="54" height="24" rx="4"/>
<text class="m mu" x="78" y="210">matin</text>
<rect class="bxa" x="178" y="68" width="60" height="24" rx="4"/>
<text class="m" x="186" y="84">quitta</text>
<rect class="bx" x="178" y="112" width="76" height="24" rx="4"/>
<text class="m mu" x="186" y="128">glissait</text>
<rect class="bxa" x="178" y="164" width="70" height="24" rx="4"/>
<text class="m" x="186" y="180">regarda</text>
<rect class="bx" x="178" y="208" width="60" height="24" rx="4"/>
<text class="m mu" x="186" y="224">ouvrit</text>
<rect class="bxa" x="272" y="68" width="72" height="24" rx="4"/>
<text class="m" x="280" y="84">le port</text>
<rect class="bxa" x="272" y="164" width="64" height="24" rx="4"/>
<text class="m" x="280" y="180">la mer</text>
<path class="la" d="M0 256 H28"/>
<text class="m mu" x="36" y="260">conversation 1</text>
<path class="la dash" d="M180 256 H208"/>
<text class="m mu" x="216" y="260">conversation 2</text>
<text class="i mu" x="0" y="292">Chaque réponse est tirée token par token.</text>
</svg>
